<?xml version="1.0" standalone="no"?>
<!DOCTYPE svg PUBLIC "-//W3C//DTD SVG 20010904//EN"
 "http://www.w3.org/TR/2001/REC-SVG-20010904/DTD/svg10.dtd">
<svg version="1.0" xmlns="http://www.w3.org/2000/svg"
 width="495.000000pt" height="495.000000pt" viewBox="0 0 495.000000 495.000000"
 preserveAspectRatio="xMidYMid meet">
<metadata>
Created by potrace 1.14, written by Peter Selinger 2001-2017
</metadata>
<g transform="translate(0.000000,495.000000) scale(0.100000,-0.100000)"
fill="#000000" stroke="none">
<path d="M546 2994 c-63 -20 -147 -102 -164 -160 -18 -62 -15 -115 11 -164 28
-57 84 -99 184 -139 182 -74 203 -84 228 -106 36 -34 34 -82 -6 -121 -29 -27
-34 -29 -107 -27 -66 2 -79 0 -99 -19 -41 -39 -25 -100 32 -124 45 -18 150
-18 206 1 99 34 162 120 163 224 1 112 -71 189 -249 262 -197 81 -228 108
-201 173 20 48 73 70 149 63 50 -4 71 -13 118 -46 67 -47 90 -50 124 -16 54
54 11 130 -104 184 -70 32 -207 40 -285 15z"/>
<path d="M3090 3001 c-94 -29 -159 -90 -186 -175 -15 -48 -16 -63 -6 -108 23
-97 76 -142 244 -205 176 -66 208 -88 208 -145 0 -70 -54 -101 -156 -91 -47 5
-55 3 -78 -20 -15 -15 -26 -37 -26 -52 0 -33 42 -73 87 -81 58 -11 165 1 208
24 106 54 157 172 120 281 -28 85 -101 137 -308 222 -102 41 -137 70 -137 114
0 25 8 40 30 59 62 52 157 47 247 -15 67 -45 91 -48 121 -16 84 89 -77 218
-267 216 -42 0 -87 -4 -101 -8z"/>
<path d="M1179 2977 c-43 -33 -46 -81 -6 -124 19 -21 29 -23 123 -23 l103 0 3
-326 3 -326 24 -19 c32 -26 77 -24 106 6 l25 24 0 376 0 376 -25 24 c-24 24
-27 25 -182 25 -108 -1 -163 -4 -174 -13z"/>
<path d="M1704 2979 c-22 -11 -44 -48 -44 -74 0 -8 11 -26 23 -41 46 -53 127
-24 127 46 0 54 -59 92 -106 69z"/>
<path d="M2223 2968 c-31 -34 -353 -717 -353 -748 0 -43 35 -80 76 -80 45 0
65 22 110 120 l37 80 204 0 c155 0 212 3 238 15 38 15 60 54 49 89 -18 54
-246 522 -261 534 -27 20 -77 15 -100 -10z m60 -476 c-58 -1 -107 -1 -109 1
-2 2 19 54 48 116 l52 112 57 -113 57 -113 -105 -3z"/>
<path d="M3845 2965 l-25 -24 0 -376 0 -376 25 -24 c32 -33 78 -33 110 0 24
23 25 28 25 170 l0 145 175 0 175 0 0 -135 c0 -174 13 -205 89 -205 17 0 37
10 52 26 l24 26 0 255 0 255 -28 24 c-15 13 -39 24 -53 24 -36 0 -84 -51 -84
-89 l0 -31 -175 0 -175 0 0 155 c0 152 -1 156 -25 180 -15 16 -36 25 -55 25
-19 0 -40 -9 -55 -25z"/>
<path d="M4380 2977 c-53 -27 -52 -109 2 -131 42 -18 82 -4 98 35 16 37 -1 82
-36 98 -31 14 -33 14 -64 -2z"/>
<path d="M398 2375 c-51 -28 -50 -103 2 -130 56 -29 110 6 110 71 0 55 -61 87
-112 59z"/>
<path d="M2923 2378 c-31 -15 -49 -62 -35 -93 36 -78 145 -59 145 26 0 53 -62
91 -110 67z"/>
<path d="M2573 2285 c-57 -24 -56 -106 1 -134 25 -12 33 -11 62 3 90 42 29
169 -63 131z"/>
</g>
</svg>
